C:\Users\u0150099\Documents\master_thesis\3dpredictsim\Polynomials\Fal_s1_mtj_sc_FDB_MTc\dummy_motion.mot
nRows=13
nColumns=34

name C:\Users\u0150099\Documents\master_thesis\3dpredictsim\Polynomials\Fal_s1_mtj_sc_FDB_MTc\dummy_motion.mot
datacolumns 34
datarows 13
range 12.5100000000 12.6300000000
endheader
time	pelvis_tilt	pelvis_list	pelvis_rotation	pelvis_tx	pelvis_ty	pelvis_tz	hip_flexion_r	hip_adduction_r	hip_rotation_r	knee_angle_r	ankle_angle_r	subtalar_angle_r	mtj_angle_r	mtp_angle_r	hip_flexion_l	hip_adduction_l	hip_rotation_l	knee_angle_l	ankle_angle_l	subtalar_angle_l	mtj_angle_l	mtp_angle_l	lumbar_extension	lumbar_bending	lumbar_rotation	arm_flex_r	arm_add_r	arm_rot_r	elbow_flex_r	arm_flex_l	arm_add_l	arm_rot_l	elbow_flex_l
       12.5100000000	        0.0000000000	        0.0000000000	        0.0000000000	        0.0000000000	        0.0000000000	        0.0000000000	      -43.2189585830	        4.7138824453	       -4.8341046956	      -61.8476791164	       19.6453692140	      -26.9780126849	       -7.1110975516	      -25.0277357622	        0.0000000000	        0.0000000000	        0.0000000000	        0.0000000000	        0.0000000000	        0.0000000000	        0.0000000000	        0.0000000000	       11.1394960258	       -3.1731589809	       22.4581767521	        0.0000000000	        0.0000000000	        0.0000000000	        0.0000000000	        0.0000000000	        0.0000000000	        0.0000000000	        0.0000000000	
       12.5200000000	        0.0000000000	        0.0000000000	        0.0000000000	        0.0000000000	        0.0000000000	        0.0000000000	      -34.5621776758	       15.4197356604	      -29.6199238228	      -87.4302518759	       10.5940725373	        0.5847543611	      -24.1774484862	       29.1675716199	        0.0000000000	        0.0000000000	        0.0000000000	        0.0000000000	        0.0000000000	        0.0000000000	        0.0000000000	        0.0000000000	      -29.0518321870	      -29.3566058736	       10.2820248738	        0.0000000000	        0.0000000000	        0.0000000000	        0.0000000000	        0.0000000000	        0.0000000000	        0.0000000000	        0.0000000000	
       12.5300000000	        0.0000000000	        0.0000000000	        0.0000000000	        0.0000000000	        0.0000000000	        0.0000000000	       11.1414396109	      -23.6162170590	       29.5441420784	      -55.7608814294	      -25.2578973566	      -29.6914327494	      -12.6363407526	       32.7218833150	        0.0000000000	        0.0000000000	        0.0000000000	        0.0000000000	        0.0000000000	        0.0000000000	        0.0000000000	        0.0000000000	       14.5248530676	        3.1893442479	       -2.3328110255	        0.0000000000	        0.0000000000	        0.0000000000	        0.0000000000	        0.0000000000	        0.0000000000	        0.0000000000	        0.0000000000	
       12.5400000000	        0.0000000000	        0.0000000000	        0.0000000000	        0.0000000000	        0.0000000000	        0.0000000000	       -0.8615574669	       25.4884553824	       16.0199837452	       -5.6231427960	      -26.2913238581	       24.1294848483	        1.3034567112	      -21.4582133014	        0.0000000000	        0.0000000000	        0.0000000000	        0.0000000000	        0.0000000000	        0.0000000000	        0.0000000000	        0.0000000000	      -14.2532426104	       -6.7472870142	       -6.4500425517	        0.0000000000	        0.0000000000	        0.0000000000	        0.0000000000	        0.0000000000	        0.0000000000	        0.0000000000	        0.0000000000	
       12.5500000000	        0.0000000000	        0.0000000000	        0.0000000000	        0.0000000000	        0.0000000000	        0.0000000000	       30.5393040757	        8.0019956700	      -13.5272317328	       -7.9893160527	       25.4215946838	      -24.5173824645	       -1.2525819103	      -17.9819183146	        0.0000000000	        0.0000000000	        0.0000000000	        0.0000000000	        0.0000000000	        0.0000000000	        0.0000000000	        0.0000000000	      -29.5984306645	      -14.7324470340	        3.8965764212	        0.0000000000	        0.0000000000	        0.0000000000	        0.0000000000	        0.0000000000	        0.0000000000	        0.0000000000	        0.0000000000	
       12.5600000000	        0.0000000000	        0.0000000000	        0.0000000000	        0.0000000000	        0.0000000000	        0.0000000000	       30.0566082288	      -21.5090149844	       22.7890038563	      -24.5771481103	       12.0369527166	       -3.5527919289	        4.8487122392	      -17.5858511364	        0.0000000000	        0.0000000000	        0.0000000000	        0.0000000000	        0.0000000000	        0.0000000000	        0.0000000000	        0.0000000000	      -21.8750761056	       -4.1241702621	      -26.0759879857	        0.0000000000	        0.0000000000	        0.0000000000	        0.0000000000	        0.0000000000	        0.0000000000	        0.0000000000	        0.0000000000	
       12.5700000000	        0.0000000000	        0.0000000000	        0.0000000000	        0.0000000000	        0.0000000000	        0.0000000000	      -36.1317137572	       16.2108912964	      -18.3188154754	      -70.3157257139	        3.1409060600	       27.0645839084	       -6.7428696886	      -29.9053415851	        0.0000000000	        0.0000000000	        0.0000000000	        0.0000000000	        0.0000000000	        0.0000000000	        0.0000000000	        0.0000000000	       18.2571215773	      -21.9907911144	       -8.3841565513	        0.0000000000	        0.0000000000	        0.0000000000	        0.0000000000	        0.0000000000	        0.0000000000	        0.0000000000	        0.0000000000	
       12.5800000000	        0.0000000000	        0.0000000000	        0.0000000000	        0.0000000000	        0.0000000000	        0.0000000000	       -5.4776232917	        8.3986774296	       25.1231234125	      -70.2131407211	      -17.6402239972	       25.6750969838	       16.3260089197	      -21.4177888208	        0.0000000000	        0.0000000000	        0.0000000000	        0.0000000000	        0.0000000000	        0.0000000000	        0.0000000000	        0.0000000000	       21.3449917210	        5.3096631246	       15.7859393997	        0.0000000000	        0.0000000000	        0.0000000000	        0.0000000000	        0.0000000000	        0.0000000000	        0.0000000000	        0.0000000000	
       12.5900000000	        0.0000000000	        0.0000000000	        0.0000000000	        0.0000000000	        0.0000000000	        0.0000000000	       23.9745211954	       21.5654858536	      -27.7598045225	      -77.1146627913	       -6.7660553536	       24.1917804766	       20.6196080289	       13.1023288852	        0.0000000000	        0.0000000000	        0.0000000000	        0.0000000000	        0.0000000000	        0.0000000000	        0.0000000000	        0.0000000000	       21.8911962118	       13.8981251759	       29.1355853115	        0.0000000000	        0.0000000000	        0.0000000000	        0.0000000000	        0.0000000000	        0.0000000000	        0.0000000000	        0.0000000000	
       12.6000000000	        0.0000000000	        0.0000000000	        0.0000000000	        0.0000000000	        0.0000000000	        0.0000000000	        4.7789824311	        5.5962446650	       -1.2478301123	      -71.4543422195	       -1.9941881338	        0.7500217043	      -17.9289083306	      -21.7253945767	        0.0000000000	        0.0000000000	        0.0000000000	        0.0000000000	        0.0000000000	        0.0000000000	        0.0000000000	        0.0000000000	      -21.2587645651	      -17.7089650404	      -23.3545920766	        0.0000000000	        0.0000000000	        0.0000000000	        0.0000000000	        0.0000000000	        0.0000000000	        0.0000000000	        0.0000000000	
       12.6100000000	        0.0000000000	        0.0000000000	        0.0000000000	        0.0000000000	        0.0000000000	        0.0000000000	      -22.0373371960	      -12.3332489160	       11.1069593505	      -60.7969662662	      -26.1496916536	       -9.7511482516	       27.6216040442	       36.5160774865	        0.0000000000	        0.0000000000	        0.0000000000	        0.0000000000	        0.0000000000	        0.0000000000	        0.0000000000	        0.0000000000	      -15.1410477233	       18.9395907933	       20.3470107332	        0.0000000000	        0.0000000000	        0.0000000000	        0.0000000000	        0.0000000000	        0.0000000000	        0.0000000000	        0.0000000000	
       12.6200000000	        0.0000000000	        0.0000000000	        0.0000000000	        0.0000000000	        0.0000000000	        0.0000000000	      -44.3615962350	       16.4521910662	      -23.6578690405	      -52.3966979550	      -10.7810192300	        5.1518904050	       -7.1352167682	       -9.1568834963	        0.0000000000	        0.0000000000	        0.0000000000	        0.0000000000	        0.0000000000	        0.0000000000	        0.0000000000	        0.0000000000	        1.2411191193	      -10.6906709202	      -14.1296521273	        0.0000000000	        0.0000000000	        0.0000000000	        0.0000000000	        0.0000000000	        0.0000000000	        0.0000000000	        0.0000000000	
       12.6300000000	        0.0000000000	        0.0000000000	        0.0000000000	        0.0000000000	        0.0000000000	        0.0000000000	      -48.7538474300	      -14.8992609779	        7.0517535277	      -74.6570904089	      -22.4739387744	       -4.8215097732	       27.3569897358	      -26.1278399634	        0.0000000000	        0.0000000000	        0.0000000000	        0.0000000000	        0.0000000000	        0.0000000000	        0.0000000000	        0.0000000000	      -29.3811133676	      -20.1075854591	       27.5055191731	        0.0000000000	        0.0000000000	        0.0000000000	        0.0000000000	        0.0000000000	        0.0000000000	        0.0000000000	        0.0000000000	
